<?xml version="1.0" standalone="no"?>
<!DOCTYPE svg PUBLIC "-//W3C//DTD SVG 20010904//EN"
 "http://www.w3.org/TR/2001/REC-SVG-20010904/DTD/svg10.dtd">
<svg version="1.0" xmlns="http://www.w3.org/2000/svg"
 width="498.000000pt" height="498.000000pt" viewBox="0 0 498.000000 498.000000"
 preserveAspectRatio="xMidYMid meet">
<metadata>
Created by potrace 1.14, written by Peter Selinger 2001-2017
</metadata>
<g transform="translate(0.000000,498.000000) scale(0.100000,-0.100000)"
fill="#000000" stroke="none">
<path d="M2895 4303 c-11 -2 -29 -8 -40 -13 -18 -7 -62 -20 -90 -26 -41 -8
-55 -18 -55 -40 0 -13 -4 -24 -10 -24 -5 0 -10 -15 -10 -34 0 -19 -4 -37 -9
-41 -6 -3 -13 -26 -17 -50 -3 -25 -10 -45 -15 -45 -5 0 -9 -13 -9 -29 0 -17
-4 -32 -9 -36 -6 -3 -8 -14 -6 -25 2 -11 0 -20 -6 -20 -5 0 -9 -16 -9 -35 0
-19 -4 -35 -10 -35 -5 0 -10 -11 -10 -25 0 -14 -4 -25 -8 -25 -5 0 -8 -12 -7
-27 1 -16 -2 -35 -6 -43 -4 -8 -13 -29 -20 -46 -13 -33 -30 -42 -124 -70 -33
-9 -64 -21 -69 -26 -17 -14 -44 -9 -48 10 -4 18 13 76 25 88 4 4 7 20 7 35 0
15 5 31 11 34 6 4 8 13 5 21 -3 7 -1 16 4 19 6 4 10 17 10 30 0 13 5 27 10 30
6 3 10 19 10 35 0 16 5 32 11 35 6 4 8 13 5 21 -3 7 -1 16 4 19 6 4 10 19 10
35 0 16 4 31 9 34 7 5 22 62 25 98 1 3 4 10 9 14 4 4 7 11 7 16 0 11 -30 5
-95 -22 -45 -18 -61 -24 -80 -26 -11 -1 -32 -7 -46 -13 -21 -7 -26 -15 -22
-34 3 -14 0 -28 -6 -31 -6 -4 -11 -18 -11 -32 0 -13 -4 -24 -9 -24 -5 0 -12
-25 -16 -55 -3 -30 -11 -57 -16 -60 -5 -4 -9 -19 -9 -35 0 -16 -4 -31 -9 -35
-6 -3 -13 -27 -17 -53 -3 -26 -10 -51 -13 -57 -10 -15 -29 -75 -36 -115 -4
-19 -12 -42 -18 -50 -17 -21 -56 -42 -67 -35 -5 3 -11 1 -15 -5 -3 -5 -17 -10
-31 -10 -13 0 -24 -4 -24 -10 0 -5 -11 -10 -24 -10 -14 0 -28 -5 -31 -10 -4
-6 -10 -8 -15 -5 -14 9 -50 -36 -50 -62 0 -13 -5 -23 -11 -23 -7 0 -9 -10 -7
-25 3 -14 1 -28 -3 -31 -5 -3 -9 -16 -9 -29 0 -13 -4 -27 -10 -30 -5 -3 -10
-15 -10 -26 0 -10 -6 -19 -14 -19 -8 0 -16 -4 -18 -8 -4 -10 -569 -292 -584
-292 -18 0 -44 -75 -44 -128 0 -26 -4 -52 -9 -57 -5 -6 -11 -34 -13 -63 -5
-48 -3 -55 21 -72 14 -11 31 -24 38 -30 7 -5 16 -10 21 -10 5 0 18 -10 30 -23
21 -23 30 -76 15 -91 -4 -4 -6 -24 -4 -45 1 -22 -2 -42 -8 -46 -6 -3 -11 -30
-11 -60 0 -30 -4 -57 -10 -60 -5 -3 -9 -16 -9 -28 1 -12 -2 -48 -6 -79 -7 -56
-7 -58 25 -85 18 -15 38 -31 44 -35 7 -4 4 -13 -7 -26 -9 -10 -17 -22 -17 -27
0 -5 -9 -18 -20 -30 l-19 -21 119 -119 c65 -66 122 -131 125 -145 4 -14 10
-27 13 -30 13 -9 57 -75 77 -112 11 -21 22 -38 26 -38 6 0 22 -39 20 -51 0 -4
9 -15 19 -24 11 -10 20 -24 20 -31 0 -7 6 -17 13 -21 7 -4 21 -24 30 -43 19
-37 39 -72 47 -80 9 -9 30 -44 39 -67 6 -11 15 -24 21 -28 5 -3 17 -21 25 -38
22 -46 39 -74 58 -95 10 -10 17 -22 17 -27 0 -4 11 -23 25 -41 30 -39 31 -61
8 -136 -19 -60 -25 -66 -148 -125 -16 -8 -49 -25 -72 -36 l-43 -22 62 -62 c35
-35 66 -63 70 -63 4 0 25 -18 46 -41 33 -33 44 -39 66 -33 14 3 26 10 26 15 0
5 5 9 11 9 6 0 51 19 100 43 72 34 88 46 89 65 0 12 4 22 9 22 5 0 11 17 14
38 13 75 21 73 273 -54 126 -63 236 -124 245 -136 10 -12 20 -43 23 -69 4 -27
11 -51 16 -54 6 -3 10 -23 10 -43 0 -37 0 -37 -103 -87 -89 -44 -98 -50 -72
-53 17 -2 34 -8 39 -13 6 -5 32 -9 60 -9 41 0 72 11 174 61 l124 61 -7 51 c-4
29 -11 56 -16 62 -5 5 -9 21 -9 35 0 14 -4 30 -9 35 -5 6 -12 33 -16 60 -6 48
-5 52 29 84 20 19 36 40 36 46 0 6 14 24 30 40 30 29 31 29 59 12 16 -9 36
-17 45 -17 17 0 57 -20 67 -33 3 -4 11 9 19 28 8 19 17 35 20 35 4 0 16 19 29
43 24 47 43 79 51 87 3 3 10 14 16 25 13 23 37 30 62 19 9 -4 27 -6 39 -5 11
1 24 -3 28 -8 3 -6 21 -11 40 -11 19 0 36 -4 39 -9 5 -8 89 -22 133 -22 12 1
25 -4 28 -9 3 -6 24 -10 45 -10 21 0 41 -4 44 -9 3 -4 37 -11 76 -15 38 -4 72
-11 75 -17 4 -5 19 -9 36 -9 24 0 29 4 29 23 0 13 3 27 8 31 4 4 7 11 8 14 3
26 18 62 25 62 5 0 9 11 9 24 0 14 5 28 11 31 5 4 8 12 6 18 -2 7 4 26 13 42
41 74 41 74 -89 138 -65 31 -123 57 -129 57 -6 0 -12 3 -14 8 -1 4 -54 32
-115 62 -92 45 -113 59 -113 77 0 12 4 24 9 27 5 3 19 25 31 48 12 24 25 45
29 48 4 3 14 20 22 38 l16 32 -92 90 c-50 50 -96 90 -101 90 -5 0 -43 34 -84
75 -41 41 -79 75 -84 75 -5 0 -43 33 -83 74 -40 41 -79 78 -87 83 -8 4 -53 45
-100 91 -46 45 -88 82 -93 82 -5 0 -40 32 -78 70 -72 73 -108 98 -160 109 -16
4 -34 16 -39 27 -5 10 -31 31 -58 44 -54 27 -68 44 -61 75 3 11 7 43 10 70 3
28 9 54 14 59 5 6 9 34 9 63 0 29 4 53 9 53 4 0 7 20 6 45 -2 25 1 48 6 51 5
3 9 29 9 59 0 30 5 57 10 60 6 3 10 26 10 50 0 24 4 46 9 49 15 9 0 46 -23 58
-11 6 -42 29 -67 50 -25 21 -50 38 -55 38 -6 0 -21 11 -34 25 -13 14 -27 25
-32 25 -9 0 -13 2 -69 50 -20 16 -41 30 -47 30 -5 0 -15 7 -22 15 -21 25 -4
35 80 52 14 2 34 8 45 13 11 5 35 14 53 22 23 9 32 18 28 31 -2 9 0 17 5 17 5
0 9 11 9 24 0 14 4 27 9 30 7 5 12 18 27 86 13 58 18 76 23 80 3 3 11 14 17
25 6 11 24 22 40 23 16 2 34 7 39 12 6 5 27 11 48 15 20 4 40 11 43 16 3 5 15
9 28 9 28 0 46 18 46 47 0 22 22 98 40 138 5 11 12 39 15 62 4 24 11 45 16 49
5 3 9 18 9 34 0 16 4 31 9 34 9 6 25 82 22 104 -1 6 3 12 9 12 5 0 10 11 10
25 0 14 5 25 10 25 6 0 10 14 10 30 0 30 -4 32 -45 23z m-605 -757 c0 -14 -4
-27 -9 -30 -5 -3 -11 -20 -14 -38 -8 -50 -12 -67 -20 -74 -4 -4 -7 -20 -7 -36
0 -15 -5 -28 -11 -28 -6 0 -9 -9 -6 -20 8 -30 -7 -32 -33 -5 -13 14 -29 25
-37 25 -7 0 -13 4 -13 9 0 21 -40 21 -79 0 -23 -12 -45 -18 -49 -15 -3 4 -1
10 5 14 11 7 29 86 24 110 -1 6 3 12 9 12 5 0 10 6 10 14 0 12 26 26 55 30 6
1 17 6 25 11 16 10 26 13 73 22 15 3 30 9 33 14 3 5 14 9 25 9 14 0 19 -7 19
-24z"/>
</g>
</svg>
